0
SECTION
2
HEADER
0
ENDSEC
0
SECTION
2
ENTITIES

0
LINE
8
walls
10
0
20
0
11
20
21
0
0
LINE
8
walls
10
20
20
0
11
20
21
15
0
LINE
8
walls
10
20
20
15
11
0
21
15
0
LINE
8
walls
10
0
20
15
11
0
21
0

0
LINE
8
walls
10
10
20
0
11
10
21
15

0
LINE
8
walls
10
0
20
7
11
20
21
7

0
LINE
8
stairs
10
2
20
2
11
6
21
2
0
LINE
8
stairs
10
6
20
2
11
6
21
6
0
LINE
8
stairs
10
6
20
6
11
2
21
6
0
LINE
8
stairs
10
2
20
6
11
2
21
2

0
LINE
8
stairs
10
2
20
3
11
6
21
3
0
LINE
8
stairs
10
2
20
4
11
6
21
4
0
LINE
8
stairs
10
2
20
5
11
6
21
5

0
ENDSEC
0
EOF
