0
SECTION
2
HEADER
0
ENDSEC

0
SECTION
2
TABLES
0
ENDSEC

0
SECTION
2
ENTITIES

0
LINE
8
0
10
0.00
20
0.00
30
0.0
11
30.00
21
0.00
31
0.0

0
LINE
8
0
10
30.00
20
0.00
30
0.0
11
30.00
21
20.00
31
0.0

0
LINE
8
0
10
30.00
20
20.00
30
0.0
11
0.00
21
20.00
31
0.0

0
LINE
8
0
10
0.00
20
20.00
30
0.0
11
0.00
21
0.00
31
0.0

0
LINE
8
0
10
8.00
20
0.00
30
0.0
11
8.00
21
14.00
31
0.0

0
LINE
8
0
10
14.00
20
0.00
30
0.0
11
14.00
21
14.00
31
0.0

0
LINE
8
0
10
22.00
20
0.00
30
0.0
11
22.00
21
14.00
31
0.0

0
LINE
8
0
10
0.00
20
6.00
30
0.0
11
30.00
21
6.00
31
0.0

0
LINE
8
0
10
0.00
20
14.00
30
0.0
11
30.00
21
14.00
31
0.0

0
ENDSEC

0
EOF
