ISO-10303-21;
HEADER;
FILE_DESCRIPTION(('ViewDefinition [CoordinationView]'),'2;1');
FILE_NAME('','2026-04-05T18:19:11',(''),(''),'IfcOpenShell 0.8.0','IfcOpenShell 0.8.0','');
FILE_SCHEMA(('IFC4'));
ENDSEC;
DATA;
#1=IFCOWNERHISTORY($,$,$,$,$,$,$,$);
#2=IFCPROJECT('db5e14a2-d1f3-4a22-9f99-a7fa51ae7fbf',$,'Sample Project',$,$,$,$,$,$);
#3=IFCSITE('b291d839-b7db-414e-8ba3-05b94745505d',$,'Sample Site',$,$,$,$,$,$,$,$,$,$,$);
#4=IFCBUILDING('cc7b4eeb-c37c-43ba-9059-20c3a952d956',$,'Sample Building',$,$,$,$,$,$,$,$,$);
#5=IFCBUILDINGSTOREY('da5a6346-e76c-4394-9e98-da0305fe0694',$,'Ground Floor',$,$,$,$,$,$,$);
#6=IFCWALL('5375a5fd-b563-4f10-9680-4fdfd03269d0',$,'Test Wall',$,$,$,$,$,$);
ENDSEC;
END-ISO-10303-21;
